<svg width="73" height="47" viewBox="0 0 73 47" fill="none" xmlns="http://www.w3.org/2000/svg">
<rect width="73" height="47" fill="#F5F5F5"/>
<g id="Gear 1">
<g id="Group 1">
<path id="Vector" d="M37.5967 20.0156C37.8467 20.6953 37.6358 21.4531 37.0967 21.9375L33.7139 25.0156C33.7998 25.6641 33.8467 26.3281 33.8467 27C33.8467 27.6719 33.7998 28.3359 33.7139 28.9844L37.0967 32.0625C37.6358 32.5469 37.8467 33.3047 37.5967 33.9844C37.253 34.9141 36.8389 35.8047 36.3623 36.6641L35.9951 37.2969C35.4795 38.1562 34.9014 38.9687 34.2686 39.7344C33.8076 40.2969 33.042 40.4844 32.3545 40.2656L28.003 38.8828C26.9561 39.6875 25.7998 40.3594 24.5655 40.8672L23.5889 45.3281C23.4326 46.0391 22.8858 46.6016 22.167 46.7187C21.0889 46.8984 19.9795 46.9922 18.8467 46.9922C17.7139 46.9922 16.6045 46.8984 15.5264 46.7187C14.8076 46.6016 14.2608 46.0391 14.1045 45.3281L13.1279 40.8672C11.8936 40.3594 10.7373 39.6875 9.69045 38.8828L5.3467 40.2734C4.6592 40.4922 3.89357 40.2969 3.43264 39.7422C2.79982 38.9766 2.2217 38.1641 1.70607 37.3047L1.33889 36.6719C0.862325 35.8125 0.448262 34.9219 0.104512 33.9922C-0.145488 33.3125 0.0654497 32.5547 0.604512 32.0703L3.98732 28.9922C3.90139 28.3359 3.85451 27.6719 3.85451 27C3.85451 26.3281 3.90139 25.6641 3.98732 25.0156L0.604512 21.9375C0.0654497 21.4531 -0.145488 20.6953 0.104512 20.0156C0.448262 19.0859 0.862325 18.1953 1.33889 17.3359L1.70607 16.7031C2.2217 15.8437 2.79982 15.0313 3.43264 14.2656C3.89357 13.7031 4.6592 13.5156 5.3467 13.7344L9.69826 15.1172C10.7451 14.3125 11.9014 13.6406 13.1358 13.1328L14.1123 8.67187C14.2686 7.96094 14.8154 7.39844 15.5342 7.28125C16.6123 7.09375 17.7217 7 18.8545 7C19.9873 7 21.0967 7.09375 22.1748 7.27344C22.8936 7.39062 23.4405 7.95312 23.5967 8.66406L24.5733 13.125C25.8076 13.6328 26.9639 14.3047 28.0108 15.1094L32.3623 13.7266C33.0498 13.5078 33.8155 13.7031 34.2764 14.2578C34.9092 15.0234 35.4873 15.8359 36.003 16.6953L36.3701 17.3281C36.8467 18.1875 37.2608 19.0781 37.6045 20.0078L37.5967 20.0156ZM18.8545 33.25C20.5121 33.25 22.1018 32.5915 23.2739 31.4194C24.446 30.2473 25.1045 28.6576 25.1045 27C25.1045 25.3424 24.446 23.7527 23.2739 22.5806C22.1018 21.4085 20.5121 20.75 18.8545 20.75C17.1969 20.75 15.6072 21.4085 14.4351 22.5806C13.263 23.7527 12.6045 25.3424 12.6045 27C12.6045 28.6576 13.263 30.2473 14.4351 31.4194C15.6072 32.5915 17.1969 33.25 18.8545 33.25Z" fill="#5EF0CE"/>
</g>
</g>
<g id="Gear 2">
<path id="Vector_2" d="M72.5967 13.0156C72.8467 13.6953 72.6358 14.4531 72.0967 14.9375L68.7139 18.0156C68.7998 18.6641 68.8467 19.3281 68.8467 20C68.8467 20.6719 68.7998 21.3359 68.7139 21.9844L72.0967 25.0625C72.6358 25.5469 72.8467 26.3047 72.5967 26.9844C72.253 27.9141 71.8389 28.8047 71.3623 29.6641L70.9951 30.2969C70.4795 31.1562 69.9014 31.9687 69.2686 32.7344C68.8076 33.2969 68.042 33.4844 67.3545 33.2656L63.003 31.8828C61.9561 32.6875 60.7998 33.3594 59.5655 33.8672L58.5889 38.3281C58.4326 39.0391 57.8858 39.6016 57.167 39.7187C56.0889 39.8984 54.9795 39.9922 53.8467 39.9922C52.7139 39.9922 51.6045 39.8984 50.5264 39.7187C49.8076 39.6016 49.2608 39.0391 49.1045 38.3281L48.1279 33.8672C46.8936 33.3594 45.7373 32.6875 44.6904 31.8828L40.3467 33.2734C39.6592 33.4922 38.8936 33.2969 38.4326 32.7422C37.7998 31.9766 37.2217 31.1641 36.7061 30.3047L36.3389 29.6719C35.8623 28.8125 35.4483 27.9219 35.1045 26.9922C34.8545 26.3125 35.0654 25.5547 35.6045 25.0703L38.9873 21.9922C38.9014 21.3359 38.8545 20.6719 38.8545 20C38.8545 19.3281 38.9014 18.6641 38.9873 18.0156L35.6045 14.9375C35.0654 14.4531 34.8545 13.6953 35.1045 13.0156C35.4483 12.0859 35.8623 11.1953 36.3389 10.3359L36.7061 9.70312C37.2217 8.84375 37.7998 8.03125 38.4326 7.26562C38.8936 6.70313 39.6592 6.51562 40.3467 6.73437L44.6983 8.11719C45.7451 7.3125 46.9014 6.64062 48.1358 6.13281L49.1123 1.67187C49.2686 0.960937 49.8154 0.398437 50.5342 0.28125C51.6123 0.09375 52.7217 0 53.8545 0C54.9873 0 56.0967 0.09375 57.1748 0.273438C57.8936 0.390625 58.4405 0.953125 58.5967 1.66406L59.5733 6.125C60.8076 6.63281 61.9639 7.30469 63.0108 8.10938L67.3623 6.72656C68.0498 6.50781 68.8155 6.70313 69.2764 7.25781C69.9092 8.02344 70.4873 8.83594 71.003 9.69531L71.3701 10.3281C71.8467 11.1875 72.2608 12.0781 72.6045 13.0078L72.5967 13.0156ZM53.8545 26.25C55.5121 26.25 57.1018 25.5915 58.2739 24.4194C59.446 23.2473 60.1045 21.6576 60.1045 20C60.1045 18.3424 59.446 16.7527 58.2739 15.5806C57.1018 14.4085 55.5121 13.75 53.8545 13.75C52.1969 13.75 50.6072 14.4085 49.4351 15.5806C48.263 16.7527 47.6045 18.3424 47.6045 20C47.6045 21.6576 48.263 23.2473 49.4351 24.4194C50.6072 25.5915 52.1969 26.25 53.8545 26.25Z" fill="#F98408"/>
</g>
</svg>
